<svg width="200" height="200" viewBox="0 0 200 200" fill="none" xmlns="http://www.w3.org/2000/svg">
<g clip-path="url(#clip0_2_31)">
<path d="M21.5665 98.7134C12.8784 100.114 10.3993 93.4976 9.74281 85.6782C8.81719 74.6172 20.363 52.9145 28.2069 47.0774C35.4482 41.7372 43.0065 41.1468 47.2028 46.8184" stroke="black" stroke-width="4.99993" stroke-linecap="round" stroke-linejoin="round"/>
<path d="M104.494 42.0509C87.0064 33.7514 52.0997 39.0817 37.3426 56.281C29.8304 65.2071 19.3344 87.9197 22.0292 98.5583C26.556 116.745 36.9938 129.266 52.0891 139.184C57.4377 142.69 63.9291 145.681 69.533 147.589C90.145 154.313 108.22 143.703 115.522 139.006C128.652 144.14 143.834 151.897 157.753 160.042C178.572 172.225 185.638 139.078 166.018 127.865C156.833 122.616 149.773 117.149 128.992 105.91C142.171 107.122 161.453 107.984 173.901 110.721C194.44 115.239 194.201 83.0386 168.975 78.044C151.797 74.6439 138.061 74.7924 121.663 71.6295C120.454 67.4018 122.647 50.6735 104.494 42.0509Z" stroke="black" stroke-width="4.99993" stroke-linecap="round" stroke-linejoin="round"/>
<path d="M130.483 103.537C114.643 101.091 105.957 103.461 101.766 103.95C111.778 105.229 114.349 105.286 124.882 107.436C126.674 107.804 128.694 108.523 131.009 109.79L130.483 103.537V103.537Z" fill="black"/>
<path d="M116.355 136.648C107.592 133.228 96.2184 131.212 88.3676 131.802C97.9349 135.312 105.492 138.074 114.683 141.205C114.693 141.181 115.427 138.9 116.35 136.646L116.355 136.648Z" fill="black"/>
<path d="M34.8098 91.0601C43.9785 100.183 47.1965 101.421 52.2105 105.095" stroke="black" stroke-width="4.99993" stroke-linecap="round" stroke-linejoin="round"/>
<path d="M38.3885 80.0448C50.7008 87.3376 57.3198 89.691 65.8914 93.7737" stroke="black" stroke-width="4.99993" stroke-linecap="round" stroke-linejoin="round"/>
<path d="M43.0519 67.0297C52.1206 70.8729 56.7746 71.8525 62.681 73.672" stroke="black" stroke-width="4.99993" stroke-linecap="round" stroke-linejoin="round"/>
<path d="M123.832 69.4843C102.899 66.0916 97.7549 57.2106 89.6502 49.3882C97.2762 59.3546 97.4314 68.7233 121.312 74.1117L123.832 69.4843V69.4843Z"/>
</g>
<defs>
<clipPath id="clip0_2_31">
<rect width="200" height="200" fill="white"/>
</clipPath>
</defs>
</svg>
